<svg xmlns="http://www.w3.org/2000/svg" viewBox="0 0 1440 320"><path fill="#c36cbb" fill-opacity="0.97" d="M0,0L26.7,26.7C53.3,53,107,107,160,149.3C213.3,192,267,224,320,245.3C373.3,267,427,277,480,245.3C533.3,213,587,139,640,117.3C693.3,96,747,128,800,154.7C853.3,181,907,203,960,213.3C1013.3,224,1067,224,1120,234.7C1173.3,245,1227,267,1280,256C1333.3,245,1387,203,1413,181.3L1440,160L1440,320L1413.3,320C1386.7,320,1333,320,1280,320C1226.7,320,1173,320,1120,320C1066.7,320,1013,320,960,320C906.7,320,853,320,800,320C746.7,320,693,320,640,320C586.7,320,533,320,480,320C426.7,320,373,320,320,320C266.7,320,213,320,160,320C106.7,320,53,320,27,320L0,320Z"></path></svg>